<svg id="Capa_2" data-name="Capa 2" xmlns="http://www.w3.org/2000/svg" viewBox="0 0 160 101.52"><defs><style>.cls-1{fill:#fcf8e3;}</style></defs><title>logos</title><path class="cls-1" d="M26.39,0a10,10,0,0,1,3.86.43A6.71,6.71,0,0,1,33,2.13a8,8,0,0,1,1.66,2.56,9.7,9.7,0,0,1,.69,3,17.75,17.75,0,0,1-.69,5.9,29.16,29.16,0,0,1-2.25,5.83,22.11,22.11,0,0,1-3,4.52,5,5,0,0,1-3.15,1.94,8.44,8.44,0,0,1-3.53-.37,6.15,6.15,0,0,1-2.15-1.32,4.57,4.57,0,0,1-1.1-1.67,5.52,5.52,0,0,1-.33-1.36c0-.19,0-.27.12-.26a2.57,2.57,0,0,1,.48.18,5.06,5.06,0,0,0,.83.31,3.47,3.47,0,0,0,1.14.1A5,5,0,0,0,24,20.35a13.38,13.38,0,0,0,2.82-3,18.82,18.82,0,0,0,2.3-4.55,14.09,14.09,0,0,0,.73-5.73q-.22-3.52-3.48-3.32c-.33,0-1,.48-2,1.37A37.18,37.18,0,0,0,21,8.72a64.76,64.76,0,0,0-4,5.37,47.35,47.35,0,0,0-3.72,6.66,40.53,40.53,0,0,0-2.61,7.44A25.16,25.16,0,0,0,10,35.87a7.43,7.43,0,0,0,1.2,3.79,8.61,8.61,0,0,0,2.5,2.43,10.13,10.13,0,0,0,3,1.27,9.32,9.32,0,0,0,7.41-1.23,17.83,17.83,0,0,0,3.84-3.29,25.72,25.72,0,0,0,3-4.21A45.7,45.7,0,0,0,33,30.41a.56.56,0,0,1,.48-.24,1.2,1.2,0,0,1,.72.2,2.27,2.27,0,0,1,.68.67,1.86,1.86,0,0,1,.35,1,12.38,12.38,0,0,1-.33,3.15,26.33,26.33,0,0,1-1.29,4.2A32,32,0,0,1,31.34,44,22.72,22.72,0,0,1,28,48.3a17.15,17.15,0,0,1-4.37,3.23A13.34,13.34,0,0,1,18.22,53a24.31,24.31,0,0,1-6.09-.39,15.68,15.68,0,0,1-5.72-2.25,14,14,0,0,1-4.34-4.55,16,16,0,0,1-2-7.33A25,25,0,0,1,.89,30.7,47.31,47.31,0,0,1,4,22.27a57.4,57.4,0,0,1,4.69-8.14,56.49,56.49,0,0,1,5.69-7,31.71,31.71,0,0,1,6.1-5A13.07,13.07,0,0,1,26.39,0Z"/><path class="cls-1" d="M64.72,24.26c.23,0,.48.15.74.49a2.83,2.83,0,0,1,.45,1.49A8.14,8.14,0,0,1,65.66,28a19,19,0,0,1-.91,3,34.4,34.4,0,0,1-1.61,3.56A18.58,18.58,0,0,1,60.84,38a13.39,13.39,0,0,1-3,2.66,7.8,7.8,0,0,1-3.76,1.23,5.32,5.32,0,0,1-4.65-1.76,8.16,8.16,0,0,1-1.89-5,11.47,11.47,0,0,1,.46-4,23.67,23.67,0,0,1,1.36-3.6c.52-1.1,1-2.06,1.41-2.86a3.93,3.93,0,0,0,.6-1.78c0-.38-.13-.56-.32-.55s-1,.67-2,1.94A43.35,43.35,0,0,0,45.57,29a38.72,38.72,0,0,0-3.15,6.16,14,14,0,0,0-1.17,6.14c0,.1-.09.21-.3.34a1.3,1.3,0,0,1-.66.22,2.86,2.86,0,0,1-1.19-.28,6.89,6.89,0,0,1-1.55-.89,6.46,6.46,0,0,1-1.36-1.4,3.43,3.43,0,0,1-.65-1.81,15.55,15.55,0,0,1,.67-5c.54-2,1.2-4,2-6.24s1.58-4.43,2.41-6.68a54.83,54.83,0,0,0,1.93-6.37,20.78,20.78,0,0,0,.61-5.4,4.89,4.89,0,0,0-1.51-3.67c-.1-.08.09-.26.57-.53a4.33,4.33,0,0,1,1.85-.47,8,8,0,0,1,1.67.07,4.2,4.2,0,0,1,1.67.6,3.79,3.79,0,0,1,1.3,1.41,5.36,5.36,0,0,1,.61,2.34,13,13,0,0,1-.39,3.92,40,40,0,0,1-1.31,4.35c-.55,1.5-1.12,3.06-1.73,4.69s-1.16,3.3-1.66,5A23.24,23.24,0,0,1,48.72,19a8.08,8.08,0,0,1,5.05-2.59,3.77,3.77,0,0,1,1.83.27,3.81,3.81,0,0,1,1.23.84,3.32,3.32,0,0,1,.67,1.1,4,4,0,0,1,.25,1.08,4.59,4.59,0,0,1-.31,1.79c-.24.68-.51,1.43-.82,2.26a22.6,22.6,0,0,0-.78,2.66,9.41,9.41,0,0,0-.24,2.91,3.87,3.87,0,0,0,.56,1.62,1.75,1.75,0,0,0,1.79.81,3.36,3.36,0,0,0,1.8-.75,11.72,11.72,0,0,0,1.84-1.72A13.84,13.84,0,0,0,63.22,27a20.48,20.48,0,0,0,1.23-2.42.24.24,0,0,1,.06-.14A.47.47,0,0,1,64.72,24.26Z"/><path class="cls-1" d="M83.24,23.14c.12-.29.36-.27.71.06a2.38,2.38,0,0,1,.61,1.63,8.25,8.25,0,0,1-.24,1.86,18.16,18.16,0,0,1-.91,2.9,25.26,25.26,0,0,1-1.64,3.3,16.8,16.8,0,0,1-2.39,3.17,12.72,12.72,0,0,1-3.17,2.44,9.56,9.56,0,0,1-4,1.11,8.88,8.88,0,0,1-3.4-.46,10,10,0,0,1-3.09-1.64,8.68,8.68,0,0,1-3.28-6.36,14.8,14.8,0,0,1,.77-5.66,19,19,0,0,1,2.65-5.14,15.29,15.29,0,0,1,3.91-3.76A9.42,9.42,0,0,1,74.41,15a7.24,7.24,0,0,1,1.32.09,6.09,6.09,0,0,1,1.81.56A4.41,4.41,0,0,1,79.16,17a4.72,4.72,0,0,1,.8,2.5,4.6,4.6,0,0,1-.91,3,11.51,11.51,0,0,1-2.43,2.5,14.43,14.43,0,0,1-2.94,1.75,7.59,7.59,0,0,1-2.44.72,2.49,2.49,0,0,1-1.11-.17,3.3,3.3,0,0,1-.92-.55A5.52,5.52,0,0,0,69.14,28a2.86,2.86,0,0,0,.53,1.57,3.44,3.44,0,0,0,1.13,1,4.22,4.22,0,0,0,1.38.52,5.29,5.29,0,0,0,1.35.09A10.24,10.24,0,0,0,77,30.36a9.46,9.46,0,0,0,2.65-1.77,12.18,12.18,0,0,0,2-2.51A24.13,24.13,0,0,0,83.24,23.14Zm-8.88-4.47a2.52,2.52,0,0,0-1.27.58,7.79,7.79,0,0,0-1.4,1.41,11.3,11.3,0,0,0-1.26,2,15.32,15.32,0,0,0-.92,2.3,2.76,2.76,0,0,0,2-.2,7.13,7.13,0,0,0,1.94-1.33,9,9,0,0,0,1.45-1.8A3,3,0,0,0,75.44,20C75.38,19.06,75,18.63,74.36,18.67Z"/><path class="cls-1" d="M94,12.23a8.66,8.66,0,0,1,1.81,1.13,9.28,9.28,0,0,1,1.44,1.43A2.46,2.46,0,0,1,97.83,16a3.87,3.87,0,0,1-.59,1.78A13.52,13.52,0,0,1,95.9,19.7a14.08,14.08,0,0,1-1.5,1.56,2.25,2.25,0,0,1-1.16.67c-.23,0-.25-.28-.06-.89l.66-2a9.38,9.38,0,0,0,.43-2c.06-.61-.17-.89-.69-.86a2.78,2.78,0,0,0-1.25.47,6.74,6.74,0,0,0-1.28,1.08,8.41,8.41,0,0,0-1,1.34,2.27,2.27,0,0,0-.38,1.27,7.77,7.77,0,0,0,1,3.2c.59,1.1,1.24,2.22,1.95,3.35s1.37,2.25,2,3.32a7.09,7.09,0,0,1,1,3A7.2,7.2,0,0,1,95.24,36a6.53,6.53,0,0,1-1.47,2.43,8.2,8.2,0,0,1-2.69,1.84,11.39,11.39,0,0,1-4,.9,5.59,5.59,0,0,1-4.2-1.36,11.31,11.31,0,0,1-2.71-3.49,14.21,14.21,0,0,1-1.31-3.74c-.21-1.2-.19-1.94.07-2.25s.62-.29,1.07,0,1,.68,1.56,1.14,1.24.9,1.93,1.33a3.59,3.59,0,0,0,2.17.57c1.55-.1,2.5-.54,2.83-1.31a4.27,4.27,0,0,0,0-2.82,21.92,21.92,0,0,0-1.41-3.62,26.32,26.32,0,0,1-1.47-3.68c-.24.73-.48,1.5-.71,2.32s-.48,1.64-.76,2.46c-.08.29-.22.42-.44.39a1,1,0,0,1-.6-.5,3.14,3.14,0,0,1-.39-1.11,2.91,2.91,0,0,1,.12-1.39c.16-.48.43-1.36.79-2.64a21.22,21.22,0,0,1,1.63-4A15.76,15.76,0,0,1,88,13.75a6.32,6.32,0,0,1,4.1-1.89l.21,0A3.57,3.57,0,0,1,94,12.23Z"/><path class="cls-1" d="M116.85,7.14c.14,0,.2.14.17.45a2.89,2.89,0,0,1-.32,1.05A4.19,4.19,0,0,1,116,9.72a1.55,1.55,0,0,1-1,.53l-5.23.33a86.45,86.45,0,0,0-3.14,8.09,19.16,19.16,0,0,0-1.14,7.1,5,5,0,0,0,.52,2c.3.55.94.79,1.93.73a3.7,3.7,0,0,0,2.07-.95,12.79,12.79,0,0,0,2-2.08,22.42,22.42,0,0,0,1.58-2.34,11.83,11.83,0,0,0,.92-1.8c.16-.38.41-.38.75,0a2.69,2.69,0,0,1,.56,1.59,7.81,7.81,0,0,1-.26,1.51,29.54,29.54,0,0,1-.84,2.93A28.27,28.27,0,0,1,113.13,31a19.74,19.74,0,0,1-2.25,3.55,13.51,13.51,0,0,1-3,2.79A7.83,7.83,0,0,1,104,38.64a5.75,5.75,0,0,1-3.08-.52,6.13,6.13,0,0,1-3.1-3.67,9.18,9.18,0,0,1-.37-1.92,20.89,20.89,0,0,1,.35-5.14,41.56,41.56,0,0,1,1.43-5.52q.93-2.79,2.15-5.57T103.89,11l-7.42.47c-.57,0-.8-.16-.72-.59a4.4,4.4,0,0,1,.69-1.46,8.81,8.81,0,0,1,1.29-1.51A2.28,2.28,0,0,1,99,7.16c.24,0,1,0,2.24,0s2.79.07,4.59.1c.34-.64.6-1.13.79-1.47s.36-.63.51-.85.29-.4.4-.53l.43-.48a6.51,6.51,0,0,1,2-1.44,17.34,17.34,0,0,1,2.49-1.09,6,6,0,0,1,1.89-.37c.48,0,.51.25.12.71a13.73,13.73,0,0,0-1.3,2c-.55,1-1.18,2.15-1.9,3.56Q114.17,7.32,116.85,7.14Z"/><path class="cls-1" d="M63.44,53.59a8.84,8.84,0,0,1-.8,4.07A21,21,0,0,1,60.08,62a34.93,34.93,0,0,1-3.78,4.22,39,39,0,0,1-4.45,3.69,13.17,13.17,0,0,1,4,2.52,5.06,5.06,0,0,1,1.75,3.44,11.79,11.79,0,0,1-.77,4.55,31.81,31.81,0,0,1-2.53,5.38,43.44,43.44,0,0,1-3.87,5.54,41.74,41.74,0,0,1-4.79,5,27.82,27.82,0,0,1-5.27,3.64,13.1,13.1,0,0,1-5.26,1.57,11.83,11.83,0,0,1-6.25-1.12,11.41,11.41,0,0,1-4.16-3.49,11.84,11.84,0,0,1-2-4.6,8.38,8.38,0,0,1,.25-4.48c.16-.39.34-.57.53-.54a2,2,0,0,1,.78.49l1.24,1.09a9.39,9.39,0,0,0,1.92,1.26,11.48,11.48,0,0,0,2.8,1,13.44,13.44,0,0,0,3.81.22,15.76,15.76,0,0,0,6.23-1.85,24.91,24.91,0,0,0,5.71-4.06A22.76,22.76,0,0,0,50,80.19,9.48,9.48,0,0,0,51.4,75a2.2,2.2,0,0,0-1-1.67,7.4,7.4,0,0,0-2.13-1.11,19.17,19.17,0,0,1-3.1,1.41,10.58,10.58,0,0,1-2.73.6,5.67,5.67,0,0,1-2.62-.33,3.68,3.68,0,0,1-1.53-1.18,38.44,38.44,0,0,0-1.24,3.81,17.93,17.93,0,0,0-.62,3.73,11.2,11.2,0,0,0,.37,3.52,8,8,0,0,0,1.77,3.19.39.39,0,0,1,0,.57,2.37,2.37,0,0,1-.78.55,7.55,7.55,0,0,1-1.14.42,4.79,4.79,0,0,1-1.12.22,5.18,5.18,0,0,1-2.37-.42,6.6,6.6,0,0,1-2.08-1.39,8.26,8.26,0,0,1-1.52-2.07,6.35,6.35,0,0,1-.69-2.51,12.46,12.46,0,0,1,.67-4.55,48.34,48.34,0,0,1,2-5.2c.8-1.8,1.63-3.6,2.49-5.38a48,48,0,0,0,2.09-5A17,17,0,0,0,37.07,58,3.31,3.31,0,0,0,36,55.07c-.11-.13,0-.27.47-.42a5,5,0,0,1,1.58-.21,9,9,0,0,1,2,.27,3.3,3.3,0,0,1,1.74,1A4.51,4.51,0,0,1,43,58.46a11,11,0,0,1-.39,3.43,25.31,25.31,0,0,1-1.38,3.92c-.6,1.37-1.2,2.78-1.82,4.24a6.54,6.54,0,0,1,1.56-1.13,5.11,5.11,0,0,1,2.16-.6c.52,0,1,0,1.56,0s1.05,0,1.57.11a20,20,0,0,0,3.87-3.83,33.76,33.76,0,0,0,3-4.63A23.69,23.69,0,0,0,55,55.41a10.8,10.8,0,0,0,.56-3.51,4.21,4.21,0,0,0-1-2.85,4.3,4.3,0,0,0-3.24-.71,27.57,27.57,0,0,0-10.89,2.9A30,30,0,0,0,32,57.46a26.41,26.41,0,0,0-5.26,8.14,19.55,19.55,0,0,0-1.54,8.69.49.49,0,0,1-.53.6,4,4,0,0,1-2.46-.83,13.12,13.12,0,0,1-2.53-2.29,14.33,14.33,0,0,1-2-3,8.05,8.05,0,0,1-.91-3.06,11,11,0,0,1,2.55-7.23,29.52,29.52,0,0,1,7.58-7,50,50,0,0,1,11.12-5.4,49.22,49.22,0,0,1,13.17-2.65,10.46,10.46,0,0,1,3.83.53,14.2,14.2,0,0,1,3.89,2A12,12,0,0,1,62,49.18,9,9,0,0,1,63.44,53.59Z"/><path class="cls-1" d="M83.8,70.57c-.23-.34-.47-.51-.7-.49q-.07,0-.21.15a.24.24,0,0,0-.06.15A20.48,20.48,0,0,1,81.6,72.8,14.9,14.9,0,0,1,80,75.07a11.77,11.77,0,0,1-1.85,1.72,3.53,3.53,0,0,1-1.79.75,1.75,1.75,0,0,1-1.79-.81A3.66,3.66,0,0,1,74,75.14a9.92,9.92,0,0,1,.24-2.89A25.88,25.88,0,0,1,75,69.6c.52-1.41,1.33-2.95,1.07-4.49a3.62,3.62,0,0,0-3.66-2.86,15.38,15.38,0,0,0-2.44.23,34.32,34.32,0,0,1-4.06.28,13,13,0,0,0-2.07.12,1.42,1.42,0,0,0-.92.45,1.74,1.74,0,0,0-.27.92A31.16,31.16,0,0,1,61.41,70,37.49,37.49,0,0,1,59.8,74.2a19.53,19.53,0,0,1-2,3.54,3.33,3.33,0,0,1-2.38,1.57c-.08.29.16.61.7,1a3.75,3.75,0,0,0,2,.55,4.65,4.65,0,0,0,2.47-.73,5.59,5.59,0,0,0,2.15-2.94c.16-.48.37-1.12.62-1.92s.55-1.67.87-2.61.63-1.9,1-2.87.61-1.86.89-2.68l4.17-.27,0,.35a5,5,0,0,1-.68,2c-.48,1-1,2.11-1.56,3.4a41.6,41.6,0,0,0-1.51,4.14A11.84,11.84,0,0,0,65.91,81a8.24,8.24,0,0,0,1.88,5,5.37,5.37,0,0,0,4.66,1.76,7.67,7.67,0,0,0,3.75-1.24,13.27,13.27,0,0,0,3-2.68,17,17,0,0,0,2.26-3.48c.63-1.27,1.16-2.46,1.59-3.58a20,20,0,0,0,.9-3,7.51,7.51,0,0,0,.25-1.71A2.91,2.91,0,0,0,83.8,70.57Z"/><path class="cls-1" d="M101.42,69c.12-.29.36-.27.71.07a2.37,2.37,0,0,1,.6,1.62,7.69,7.69,0,0,1-.24,1.86,16.92,16.92,0,0,1-.91,2.9,25.15,25.15,0,0,1-1.63,3.3A17.23,17.23,0,0,1,97.56,82a12.37,12.37,0,0,1-3.18,2.44,9.37,9.37,0,0,1-4,1.11A8.93,8.93,0,0,1,87,85.05a10,10,0,0,1-3.08-1.64,8.64,8.64,0,0,1-3.29-6.36,14.62,14.62,0,0,1,.78-5.66,18.68,18.68,0,0,1,2.65-5.14A15.29,15.29,0,0,1,88,62.49a9.35,9.35,0,0,1,4.62-1.61A7.1,7.1,0,0,1,93.9,61a6.23,6.23,0,0,1,1.82.56,4.38,4.38,0,0,1,1.61,1.39,4.64,4.64,0,0,1,.8,2.5,4.55,4.55,0,0,1-.91,3A11.51,11.51,0,0,1,94.79,71a13.91,13.91,0,0,1-2.94,1.75,7.55,7.55,0,0,1-2.43.72,2.49,2.49,0,0,1-1.11-.17,3,3,0,0,1-.93-.55,7.42,7.42,0,0,0-.07,1.14,3,3,0,0,0,.53,1.57,3.54,3.54,0,0,0,1.13,1,4.22,4.22,0,0,0,1.38.52,5.33,5.33,0,0,0,1.36.09,10,10,0,0,0,3.46-.79,9.51,9.51,0,0,0,2.66-1.77,11.82,11.82,0,0,0,2-2.51A24.18,24.18,0,0,0,101.42,69Zm-8.88-4.47a2.55,2.55,0,0,0-1.28.58,8.49,8.49,0,0,0-1.4,1.41,10.73,10.73,0,0,0-1.25,2,14.33,14.33,0,0,0-.92,2.3,2.71,2.71,0,0,0,2-.2,7.06,7.06,0,0,0,1.94-1.33,8.63,8.63,0,0,0,1.44-1.8,2.86,2.86,0,0,0,.53-1.67C93.56,65,93.2,64.53,92.54,64.57Z"/><path class="cls-1" d="M129.56,67.45c.17-.39.42-.38.75,0a2.75,2.75,0,0,1,.56,1.6,7.84,7.84,0,0,1-.22,1.5,21.17,21.17,0,0,1-.84,2.93,35.53,35.53,0,0,1-1.51,3.61,17.62,17.62,0,0,1-2.22,3.55,12.84,12.84,0,0,1-3,2.79,7.94,7.94,0,0,1-3.93,1.28,6,6,0,0,1-2.86-.42,5.35,5.35,0,0,1-1.9-1.37,6,6,0,0,1-1.12-1.88,10.49,10.49,0,0,1-.51-1.88,17.54,17.54,0,0,1-3.22,3.9,6.09,6.09,0,0,1-3.59,1.65,5.74,5.74,0,0,1-2.08-.29,6,6,0,0,1-2-1.15,6.48,6.48,0,0,1-1.59-2.07,7.46,7.46,0,0,1-.76-3,17.61,17.61,0,0,1,.85-6.73,22.11,22.11,0,0,1,2.82-5.79,18.3,18.3,0,0,1,3.82-4.11,7.15,7.15,0,0,1,3.83-1.7,4.42,4.42,0,0,1,3.8,1.17,6.68,6.68,0,0,1,1.53,3.38,18.1,18.1,0,0,1,2.53-3.75,3.93,3.93,0,0,1,2.45-1.54,3.61,3.61,0,0,1,2.36.7,1.24,1.24,0,0,1,.47.82,1.14,1.14,0,0,1-.33.95,7.07,7.07,0,0,0-1,1.69,26.35,26.35,0,0,0-1,2.66,25.81,25.81,0,0,0-.76,3,10.86,10.86,0,0,0-.21,2.82,5.31,5.31,0,0,0,.48,2c.28.56.93.8,2,.73a3.54,3.54,0,0,0,2-1,13,13,0,0,0,2-2.07,24.28,24.28,0,0,0,1.59-2.34A11.59,11.59,0,0,0,129.56,67.45Zm-20.42,8a3.19,3.19,0,0,0,1.79-.82,7.23,7.23,0,0,0,1.65-2,12.11,12.11,0,0,0,1.15-2.56,6.92,6.92,0,0,0,.36-2.65,8.16,8.16,0,0,0-.46-2.31,1.3,1.3,0,0,0-1.38-1,3.39,3.39,0,0,0-2.07,1,11.75,11.75,0,0,0-3.15,5,7.09,7.09,0,0,0-.4,2.62,3,3,0,0,0,.8,2A2,2,0,0,0,109.14,75.5Z"/><path class="cls-1" d="M155,43.89a2.86,2.86,0,0,1,1.68-1,4.47,4.47,0,0,1,1.81,0,1.94,1.94,0,0,1,1.17.64q.39.46-.21,1.14a17.56,17.56,0,0,0-1.29,2c-.6,1-1.28,2.23-2,3.68s-1.52,3-2.28,4.79-1.47,3.52-2.11,5.29a39.73,39.73,0,0,0-1.51,5.17,16.12,16.12,0,0,0-.43,4.43,5.31,5.31,0,0,0,.49,2c.27.56.92.8,2,.73a3.52,3.52,0,0,0,2-.95,13.46,13.46,0,0,0,2-2.07,22.42,22.42,0,0,0,1.58-2.34,11.83,11.83,0,0,0,.92-1.8c.16-.39.41-.38.74,0a2.68,2.68,0,0,1,.57,1.6,8.84,8.84,0,0,1-.22,1.5,21.38,21.38,0,0,1-.85,2.93,37.76,37.76,0,0,1-1.5,3.61,18.56,18.56,0,0,1-2.22,3.55,13.23,13.23,0,0,1-3.05,2.79,7.94,7.94,0,0,1-3.93,1.28,5.74,5.74,0,0,1-3-.51,6.11,6.11,0,0,1-2-1.61,6.22,6.22,0,0,1-1.09-2.06,9.38,9.38,0,0,1-.37-1.93l0-.57a18,18,0,0,1-3.42,4.69,6.49,6.49,0,0,1-4,2,5.72,5.72,0,0,1-2.08-.29,6.07,6.07,0,0,1-2-1.15,6.6,6.6,0,0,1-1.58-2.07,7.3,7.3,0,0,1-.76-3,17.77,17.77,0,0,1,.84-6.73,22.45,22.45,0,0,1,2.83-5.79,18.5,18.5,0,0,1,3.81-4.11,7.19,7.19,0,0,1,3.83-1.7c1.84-.12,3.16.34,4,1.37a7.54,7.54,0,0,1,1.48,3.67q1.33-3.42,2.94-6.68c1.07-2.18,2.11-4.14,3.14-5.88s1.92-3.21,2.7-4.4A24.28,24.28,0,0,1,155,43.89ZM137.49,73.68a3.22,3.22,0,0,0,1.79-.82,7.23,7.23,0,0,0,1.65-2,12.64,12.64,0,0,0,1.15-2.56,7.33,7.33,0,0,0,.36-2.65,7.83,7.83,0,0,0-.47-2.31,1.28,1.28,0,0,0-1.37-1,3.39,3.39,0,0,0-2.07,1,11.34,11.34,0,0,0-1.85,2.21,11.6,11.6,0,0,0-1.31,2.78A7.31,7.31,0,0,0,135,71a3.06,3.06,0,0,0,.8,2A2.08,2.08,0,0,0,137.49,73.68Z"/></svg>