<svg xmlns="http://www.w3.org/2000/svg" viewBox="0 0 160 101.52"><defs><style>.cls-1{fill:#e11c1a;}</style></defs><title>logos</title><g id="Capa_3" data-name="Capa 3"><path class="cls-1" d="M26.39,0a10,10,0,0,1,3.86.42A6.82,6.82,0,0,1,33,2.12a7.93,7.93,0,0,1,1.65,2.56,9.22,9.22,0,0,1,.69,3,18.05,18.05,0,0,1-.68,5.9,30.58,30.58,0,0,1-2.25,5.82,21.85,21.85,0,0,1-3.05,4.52,4.93,4.93,0,0,1-3.14,1.94,8.51,8.51,0,0,1-3.54-.37,6.1,6.1,0,0,1-2.14-1.32,4.44,4.44,0,0,1-1.1-1.67,5.63,5.63,0,0,1-.34-1.36c0-.19,0-.27.13-.26a2.35,2.35,0,0,1,.47.19,6.52,6.52,0,0,0,.84.3,3.44,3.44,0,0,0,1.14.1A4.89,4.89,0,0,0,24,20.34a13.19,13.19,0,0,0,2.83-3,18.8,18.8,0,0,0,2.29-4.55,14.07,14.07,0,0,0,.74-5.72q-.22-3.54-3.48-3.33a5.09,5.09,0,0,0-2,1.37A38.39,38.39,0,0,0,21,8.71q-1.9,2.29-4,5.37a46.41,46.41,0,0,0-3.73,6.66,42.07,42.07,0,0,0-2.61,7.44A25.12,25.12,0,0,0,10,35.86a7.43,7.43,0,0,0,1.2,3.79,8.61,8.61,0,0,0,2.5,2.43,9.84,9.84,0,0,0,3,1.26,9.24,9.24,0,0,0,7.41-1.22,17.32,17.32,0,0,0,3.83-3.3,24.71,24.71,0,0,0,3-4.2A46.75,46.75,0,0,0,33,30.4a.55.55,0,0,1,.48-.24,1.16,1.16,0,0,1,.72.2,2.29,2.29,0,0,1,.69.67,1.93,1.93,0,0,1,.34,1,11.52,11.52,0,0,1-.33,3.15,26.64,26.64,0,0,1-1.29,4.2A31.89,31.89,0,0,1,31.34,44,22.72,22.72,0,0,1,28,48.29a17.29,17.29,0,0,1-4.37,3.22A13.39,13.39,0,0,1,18.22,53a24.31,24.31,0,0,1-6.09-.39,15.69,15.69,0,0,1-5.72-2.26A13.84,13.84,0,0,1,2.07,45.8a15.93,15.93,0,0,1-2-7.32,25,25,0,0,1,.85-7.79A47.31,47.31,0,0,1,4,22.26a56.45,56.45,0,0,1,4.69-8.14,55.48,55.48,0,0,1,5.69-7,31.41,31.41,0,0,1,6.1-5A13,13,0,0,1,26.39,0Z"/><path class="cls-1" d="M64.7,24.25c.24,0,.49.15.75.49a2.86,2.86,0,0,1,.45,1.49A8.9,8.9,0,0,1,65.65,28a19,19,0,0,1-.91,3,34.4,34.4,0,0,1-1.61,3.56,18.92,18.92,0,0,1-2.3,3.46,13.64,13.64,0,0,1-3,2.66,7.8,7.8,0,0,1-3.76,1.23,5.34,5.34,0,0,1-4.65-1.76,8.22,8.22,0,0,1-1.89-5,11.47,11.47,0,0,1,.46-4,24.78,24.78,0,0,1,1.36-3.6c.52-1.1,1-2.06,1.42-2.86a3.88,3.88,0,0,0,.59-1.78c0-.38-.13-.56-.32-.55s-1,.67-2,1.94A43.35,43.35,0,0,0,45.56,29a38.72,38.72,0,0,0-3.15,6.16,14,14,0,0,0-1.17,6.14c0,.1-.09.21-.3.34a1.4,1.4,0,0,1-.65.22,2.83,2.83,0,0,1-1.19-.28,6.68,6.68,0,0,1-1.55-.89,6.55,6.55,0,0,1-1.37-1.41,3.37,3.37,0,0,1-.65-1.8,15.92,15.92,0,0,1,.67-5c.54-1.95,1.2-4,2-6.23s1.58-4.43,2.41-6.68a54.83,54.83,0,0,0,1.93-6.37,20.36,20.36,0,0,0,.61-5.4,4.85,4.85,0,0,0-1.51-3.66c-.1-.09.09-.27.57-.53A4.36,4.36,0,0,1,44,3.08a8.72,8.72,0,0,1,1.67.07,4.14,4.14,0,0,1,1.67.6,3.87,3.87,0,0,1,1.3,1.41,5.43,5.43,0,0,1,.61,2.34,13.32,13.32,0,0,1-.38,3.93,43,43,0,0,1-1.32,4.34c-.54,1.5-1.12,3.07-1.72,4.69s-1.16,3.3-1.67,5A23.26,23.26,0,0,1,48.72,19a8.11,8.11,0,0,1,5.05-2.59,3.75,3.75,0,0,1,1.82.27,3.81,3.81,0,0,1,1.23.84,3.32,3.32,0,0,1,.67,1.1,4,4,0,0,1,.25,1.08,4.67,4.67,0,0,1-.31,1.8c-.24.67-.51,1.42-.82,2.25a22.6,22.6,0,0,0-.78,2.66,9.41,9.41,0,0,0-.24,2.91,3.87,3.87,0,0,0,.56,1.62,1.75,1.75,0,0,0,1.79.81,3.36,3.36,0,0,0,1.8-.75,11.72,11.72,0,0,0,1.84-1.72A13.84,13.84,0,0,0,63.21,27a20.48,20.48,0,0,0,1.23-2.42.24.24,0,0,1,.06-.14A.53.53,0,0,1,64.7,24.25Z"/><path class="cls-1" d="M83.23,23.13c.12-.29.36-.27.71.07a2.37,2.37,0,0,1,.6,1.62,7.55,7.55,0,0,1-.23,1.86,18.29,18.29,0,0,1-.92,2.9,25.15,25.15,0,0,1-1.63,3.3,17.23,17.23,0,0,1-2.39,3.17,12.59,12.59,0,0,1-3.18,2.44,9.66,9.66,0,0,1-4,1.11,8.88,8.88,0,0,1-3.4-.46,10.21,10.21,0,0,1-3.09-1.65,8.54,8.54,0,0,1-3.28-6.35,14.61,14.61,0,0,1,.77-5.66,19.11,19.11,0,0,1,2.65-5.14,15.46,15.46,0,0,1,3.91-3.76A9.42,9.42,0,0,1,74.4,15a8.3,8.3,0,0,1,1.32.09,6.18,6.18,0,0,1,1.81.56A4.3,4.3,0,0,1,79.14,17a4.56,4.56,0,0,1,.8,2.5,4.59,4.59,0,0,1-.9,3,12,12,0,0,1-2.43,2.5,14.43,14.43,0,0,1-2.94,1.75,7.93,7.93,0,0,1-2.44.72,2.49,2.49,0,0,1-1.11-.17,3,3,0,0,1-.92-.55,5.52,5.52,0,0,0-.07,1.14,2.94,2.94,0,0,0,.52,1.57,3.65,3.65,0,0,0,1.13,1,4.36,4.36,0,0,0,1.39.52,5.26,5.26,0,0,0,1.35.09A10.18,10.18,0,0,0,77,30.35a9.36,9.36,0,0,0,2.66-1.77,12.18,12.18,0,0,0,2-2.51A24.13,24.13,0,0,0,83.23,23.13Zm-8.88-4.46a2.38,2.38,0,0,0-1.27.57,8.13,8.13,0,0,0-1.4,1.41,11.3,11.3,0,0,0-1.26,2,15.32,15.32,0,0,0-.92,2.3,2.71,2.71,0,0,0,2-.2,7.06,7.06,0,0,0,1.94-1.33,9,9,0,0,0,1.45-1.8,3,3,0,0,0,.53-1.67C75.37,19.05,75,18.62,74.35,18.67Z"/><path class="cls-1" d="M94,12.23a8.61,8.61,0,0,1,1.81,1.12,8.48,8.48,0,0,1,1.44,1.43A2.58,2.58,0,0,1,97.82,16a4,4,0,0,1-.6,1.78,14.14,14.14,0,0,1-1.33,1.9,16,16,0,0,1-1.5,1.55,2.25,2.25,0,0,1-1.16.67c-.24,0-.26-.28-.06-.89s.41-1.28.65-2a9.45,9.45,0,0,0,.44-2c0-.6-.18-.89-.69-.86a2.86,2.86,0,0,0-1.25.47A6.44,6.44,0,0,0,91,17.7,8.33,8.33,0,0,0,90,19a2.35,2.35,0,0,0-.38,1.27,7.88,7.88,0,0,0,1,3.2c.59,1.1,1.24,2.22,2,3.35s1.37,2.25,2,3.32a7.09,7.09,0,0,1,1,3A7.31,7.31,0,0,1,95.23,36a6.52,6.52,0,0,1-1.48,2.44,8.26,8.26,0,0,1-2.68,1.84,11.5,11.5,0,0,1-4,.9,5.6,5.6,0,0,1-4.21-1.37,11.28,11.28,0,0,1-2.7-3.48,13.8,13.8,0,0,1-1.31-3.75c-.22-1.19-.19-1.93.07-2.24s.62-.29,1.07,0,1,.68,1.56,1.14,1.24.9,1.93,1.33a3.57,3.57,0,0,0,2.17.57c1.55-.1,2.49-.54,2.82-1.31a4.21,4.21,0,0,0,0-2.82,21.81,21.81,0,0,0-1.4-3.62,26.84,26.84,0,0,1-1.48-3.67c-.24.72-.47,1.49-.7,2.31s-.49,1.64-.77,2.46c-.07.29-.22.42-.43.39a.93.93,0,0,1-.6-.5,3.06,3.06,0,0,1-.27-2.5c.16-.48.42-1.36.79-2.64a21.85,21.85,0,0,1,1.62-4A16,16,0,0,1,88,13.74a6.37,6.37,0,0,1,4.1-1.89h.21A3.54,3.54,0,0,1,94,12.23Z"/><path class="cls-1" d="M116.83,7.14c.14,0,.2.14.17.45a2.89,2.89,0,0,1-.32,1.05,4.14,4.14,0,0,1-.75,1.07,1.51,1.51,0,0,1-1,.53l-5.23.34a83.5,83.5,0,0,0-3.13,8.08,19.16,19.16,0,0,0-1.14,7.1,4.8,4.8,0,0,0,.52,2c.29.55.93.79,1.92.73a3.7,3.7,0,0,0,2.07-1,12.38,12.38,0,0,0,2-2.08,23.1,23.1,0,0,0,1.59-2.34,12.57,12.57,0,0,0,.91-1.8c.16-.38.41-.38.75,0a2.69,2.69,0,0,1,.56,1.59,7.69,7.69,0,0,1-.26,1.51,29.54,29.54,0,0,1-.84,2.93A28.27,28.27,0,0,1,113.11,31a19.54,19.54,0,0,1-2.25,3.55,13,13,0,0,1-3,2.78,7.84,7.84,0,0,1-3.91,1.29,5.63,5.63,0,0,1-5.07-2.13,6,6,0,0,1-1.1-2.06,8.76,8.76,0,0,1-.38-1.92,21.38,21.38,0,0,1,.35-5.14,41.63,41.63,0,0,1,1.44-5.52c.62-1.86,1.33-3.71,2.15-5.57S103,12.66,103.87,11l-7.42.48c-.56,0-.8-.16-.71-.6a4.21,4.21,0,0,1,.69-1.46,8.62,8.62,0,0,1,1.28-1.5,2.24,2.24,0,0,1,1.23-.72c.24,0,1,0,2.24,0s2.79.07,4.59.1c.34-.64.6-1.13.79-1.47a8.87,8.87,0,0,1,.52-.85,5,5,0,0,1,.39-.52L107.9,4a6.86,6.86,0,0,1,2-1.44,16.19,16.19,0,0,1,2.49-1.08,5.47,5.47,0,0,1,1.89-.37c.48,0,.51.25.12.7a13.63,13.63,0,0,0-1.29,2c-.56,1-1.19,2.15-1.91,3.57Q114.15,7.31,116.83,7.14Z"/><path class="cls-1" d="M63.46,53.61a8.84,8.84,0,0,1-.81,4.06A20.66,20.66,0,0,1,60.09,62a36.43,36.43,0,0,1-3.77,4.21,39,39,0,0,1-4.45,3.69,13.17,13.17,0,0,1,4,2.52,5.14,5.14,0,0,1,1.75,3.43,11.87,11.87,0,0,1-.78,4.56,31.72,31.72,0,0,1-2.52,5.38,43.44,43.44,0,0,1-3.87,5.54,40.9,40.9,0,0,1-4.79,5,27.36,27.36,0,0,1-5.27,3.64,13.29,13.29,0,0,1-5.26,1.58,11.87,11.87,0,0,1-6.24-1.12,11.37,11.37,0,0,1-4.17-3.5,11.8,11.8,0,0,1-2-4.59,8.52,8.52,0,0,1,.25-4.49c.16-.39.34-.56.53-.53a2.07,2.07,0,0,1,.78.48l1.24,1.1a9.21,9.21,0,0,0,1.93,1.26,11.67,11.67,0,0,0,2.79,1,13.81,13.81,0,0,0,3.81.22,15.62,15.62,0,0,0,6.23-1.86,24.6,24.6,0,0,0,5.7-4A22.22,22.22,0,0,0,50,80.2,9.49,9.49,0,0,0,51.42,75a2.26,2.26,0,0,0-1-1.67,7.4,7.4,0,0,0-2.13-1.11,18.87,18.87,0,0,1-3.11,1.41,10.41,10.41,0,0,1-2.73.6,5.64,5.64,0,0,1-2.61-.33,3.68,3.68,0,0,1-1.53-1.18,38.44,38.44,0,0,0-1.24,3.81,17.84,17.84,0,0,0-.62,3.72,11.23,11.23,0,0,0,.37,3.53,8,8,0,0,0,1.77,3.19.39.39,0,0,1,0,.57,2.22,2.22,0,0,1-.78.54,6.6,6.6,0,0,1-1.14.43,6.1,6.1,0,0,1-1.12.22,5.18,5.18,0,0,1-2.37-.42,6.6,6.6,0,0,1-2.08-1.39,8.23,8.23,0,0,1-1.51-2.07,6.2,6.2,0,0,1-.7-2.51,12.43,12.43,0,0,1,.67-4.55,48.34,48.34,0,0,1,2-5.2c.8-1.8,1.63-3.6,2.49-5.38a48,48,0,0,0,2.09-5A17,17,0,0,0,37.09,58,3.28,3.28,0,0,0,36,55.09c-.11-.14,0-.28.47-.42a4.48,4.48,0,0,1,1.58-.21,8.39,8.39,0,0,1,2,.26,3.44,3.44,0,0,1,1.74,1A4.54,4.54,0,0,1,43,58.47a11.26,11.26,0,0,1-.39,3.43,25.31,25.31,0,0,1-1.38,3.92c-.6,1.37-1.2,2.78-1.82,4.24A6.54,6.54,0,0,1,41,68.93a5.11,5.11,0,0,1,2.16-.6c.52,0,1,0,1.56,0s1,0,1.57.11a19.73,19.73,0,0,0,3.87-3.83,33.76,33.76,0,0,0,3-4.63,24.35,24.35,0,0,0,1.91-4.53,10.41,10.41,0,0,0,.55-3.51,4.16,4.16,0,0,0-1-2.84,4.28,4.28,0,0,0-3.24-.72,27.73,27.73,0,0,0-10.89,2.9,30,30,0,0,0-8.4,6.22,26.72,26.72,0,0,0-5.26,8.14,19.53,19.53,0,0,0-1.53,8.69.5.5,0,0,1-.53.6,4,4,0,0,1-2.47-.83,13.07,13.07,0,0,1-2.52-2.29,14,14,0,0,1-2-3,8.43,8.43,0,0,1-.91-3.06,11.11,11.11,0,0,1,2.56-7.23A29.45,29.45,0,0,1,27,51.52a49.77,49.77,0,0,1,11.12-5.4,49.23,49.23,0,0,1,13.17-2.66,10.73,10.73,0,0,1,3.83.54A13.66,13.66,0,0,1,59,46,12.05,12.05,0,0,1,62,49.19,9.1,9.1,0,0,1,63.46,53.61Z"/><path class="cls-1" d="M83.82,70.58c-.24-.34-.47-.51-.71-.49,0,0-.11,0-.2.15a.17.17,0,0,0-.06.15,20.48,20.48,0,0,1-1.23,2.42A14.94,14.94,0,0,1,80,75.08a12.18,12.18,0,0,1-1.84,1.72,3.56,3.56,0,0,1-1.8.75,1.75,1.75,0,0,1-1.79-.81A3.63,3.63,0,0,1,74,75.15a9.28,9.28,0,0,1,.24-2.89A23.6,23.6,0,0,1,75,69.61c.52-1.41,1.33-3,1.07-4.49a3.6,3.6,0,0,0-3.66-2.85,15.35,15.35,0,0,0-2.43.22,34.48,34.48,0,0,1-4.06.29,11.87,11.87,0,0,0-2.07.11,1.49,1.49,0,0,0-.93.45,1.84,1.84,0,0,0-.27.93A29.5,29.5,0,0,1,61.42,70a35.65,35.65,0,0,1-1.61,4.22,19,19,0,0,1-2,3.54,3.35,3.35,0,0,1-2.38,1.57c-.08.29.15.61.7,1a3.84,3.84,0,0,0,2,.55,4.63,4.63,0,0,0,2.47-.73,5.59,5.59,0,0,0,2.16-2.94c.16-.48.36-1.13.62-1.92s.54-1.67.86-2.61.64-1.9.95-2.87.62-1.86.9-2.68l4.17-.27,0,.36a5.22,5.22,0,0,1-.69,2c-.48,1-1,2.11-1.55,3.4a39.24,39.24,0,0,0-1.51,4.14A11.84,11.84,0,0,0,65.93,81a8.17,8.17,0,0,0,1.88,5,5.34,5.34,0,0,0,4.65,1.76,7.71,7.71,0,0,0,3.76-1.24,13.48,13.48,0,0,0,3-2.68,17.48,17.48,0,0,0,2.26-3.48c.63-1.27,1.15-2.46,1.58-3.58a20.13,20.13,0,0,0,.91-3,7.91,7.91,0,0,0,.24-1.71A3,3,0,0,0,83.82,70.58Z"/><path class="cls-1" d="M101.42,69.05c.13-.29.37-.27.72.07a2.37,2.37,0,0,1,.6,1.62,7.69,7.69,0,0,1-.24,1.86,16.92,16.92,0,0,1-.91,2.9A25.15,25.15,0,0,1,100,78.8,17.23,17.23,0,0,1,97.57,82a12.59,12.59,0,0,1-3.18,2.44,9.66,9.66,0,0,1-4,1.11,8.88,8.88,0,0,1-3.4-.46,9.79,9.79,0,0,1-3.09-1.65,8.62,8.62,0,0,1-2.27-2.69,8.51,8.51,0,0,1-1-3.66,14.61,14.61,0,0,1,.77-5.66,18.62,18.62,0,0,1,2.65-5.13A15.17,15.17,0,0,1,88,62.5a9.49,9.49,0,0,1,4.62-1.61,7.48,7.48,0,0,1,1.32.1,6.23,6.23,0,0,1,1.81.55,4.48,4.48,0,0,1,1.61,1.39,4.92,4.92,0,0,1-.1,5.54A12,12,0,0,1,94.81,71a14.43,14.43,0,0,1-2.94,1.75,7.66,7.66,0,0,1-2.44.72,2.49,2.49,0,0,1-1.11-.17,3.14,3.14,0,0,1-.93-.55,6.16,6.16,0,0,0-.06,1.14,2.94,2.94,0,0,0,.52,1.57,3.54,3.54,0,0,0,1.13,1,4.39,4.39,0,0,0,1.38.52,5.33,5.33,0,0,0,1.36.09,10.18,10.18,0,0,0,3.46-.79,9.51,9.51,0,0,0,2.66-1.77,11.82,11.82,0,0,0,2-2.51A22.81,22.81,0,0,0,101.42,69.05Zm-8.87-4.46a2.44,2.44,0,0,0-1.28.57,8.49,8.49,0,0,0-1.4,1.41,11.28,11.28,0,0,0-1.25,2,15.32,15.32,0,0,0-.92,2.3,2.71,2.71,0,0,0,2-.2,7.06,7.06,0,0,0,1.94-1.33,8.63,8.63,0,0,0,1.44-1.8,3,3,0,0,0,.54-1.66C93.57,65,93.21,64.54,92.55,64.59Z"/><path class="cls-1" d="M129.57,67.46c.16-.39.41-.38.75,0a2.75,2.75,0,0,1,.56,1.6,8.84,8.84,0,0,1-.22,1.5,22.67,22.67,0,0,1-.84,2.93c-.41,1.14-.91,2.34-1.51,3.61a18.56,18.56,0,0,1-2.22,3.55,13,13,0,0,1-3,2.79,7.94,7.94,0,0,1-3.93,1.28,6.07,6.07,0,0,1-2.87-.42A5.31,5.31,0,0,1,114.35,83a6.09,6.09,0,0,1-1.12-1.88,9,9,0,0,1-.51-1.88,17.29,17.29,0,0,1-3.23,3.9,6,6,0,0,1-3.58,1.65,5.55,5.55,0,0,1-2.08-.3,6,6,0,0,1-2-1.14,6.48,6.48,0,0,1-1.59-2.07,7.46,7.46,0,0,1-.76-3,17.58,17.58,0,0,1,.85-6.73,22.27,22.27,0,0,1,2.82-5.79A18.3,18.3,0,0,1,107,61.64a7.16,7.16,0,0,1,3.82-1.7,4.47,4.47,0,0,1,3.81,1.17,6.72,6.72,0,0,1,1.53,3.38,18.4,18.4,0,0,1,2.52-3.74,4,4,0,0,1,2.46-1.55,3.38,3.38,0,0,1,1.32.17,3.55,3.55,0,0,1,1,.53,1.32,1.32,0,0,1,.48.83,1.18,1.18,0,0,1-.33.94,7,7,0,0,0-1,1.7,23.93,23.93,0,0,0-1,2.65,25.85,25.85,0,0,0-.77,3,11.27,11.27,0,0,0-.2,2.82,5.31,5.31,0,0,0,.48,2c.27.56.93.8,2,.73a3.57,3.57,0,0,0,2-1,13.9,13.9,0,0,0,2-2.07,24.28,24.28,0,0,0,1.59-2.34A12.57,12.57,0,0,0,129.57,67.46Zm-20.42,8.05a3.22,3.22,0,0,0,1.79-.82,7.23,7.23,0,0,0,1.65-2,12.64,12.64,0,0,0,1.15-2.56,6.92,6.92,0,0,0,.36-2.65,7.83,7.83,0,0,0-.47-2.31,1.29,1.29,0,0,0-1.37-1,3.44,3.44,0,0,0-2.07,1,11.31,11.31,0,0,0-1.84,2.21A11.63,11.63,0,0,0,107,70.22a7.27,7.27,0,0,0-.39,2.62,3,3,0,0,0,.8,2A2,2,0,0,0,109.15,75.51Z"/><path class="cls-1" d="M155,43.9a3,3,0,0,1,1.68-1,4.46,4.46,0,0,1,1.81,0,1.93,1.93,0,0,1,1.17.63c.26.32.19.7-.21,1.15a17.11,17.11,0,0,0-1.29,2c-.6,1-1.28,2.24-2,3.68s-1.52,3-2.29,4.8-1.46,3.51-2.11,5.28a39.73,39.73,0,0,0-1.51,5.17,16.16,16.16,0,0,0-.43,4.43,5.5,5.5,0,0,0,.49,2c.27.56.93.8,2,.73a3.57,3.57,0,0,0,2-1,13.9,13.9,0,0,0,2-2.07,22.42,22.42,0,0,0,1.58-2.34,11.83,11.83,0,0,0,.92-1.8c.16-.39.41-.38.74,0a2.68,2.68,0,0,1,.57,1.6,8.84,8.84,0,0,1-.22,1.5,21.38,21.38,0,0,1-.85,2.93,37.76,37.76,0,0,1-1.5,3.61,18.56,18.56,0,0,1-2.22,3.55,13.23,13.23,0,0,1-3.05,2.79,7.94,7.94,0,0,1-3.93,1.28,5.74,5.74,0,0,1-3-.51,6.2,6.2,0,0,1-3.07-3.67,8.83,8.83,0,0,1-.38-1.93l0-.57a17.77,17.77,0,0,1-3.43,4.69,6.44,6.44,0,0,1-4,2,5.55,5.55,0,0,1-2.08-.3,6,6,0,0,1-2-1.14,6.48,6.48,0,0,1-1.59-2.07,7.63,7.63,0,0,1-.76-3,17.8,17.8,0,0,1,.85-6.73,22.27,22.27,0,0,1,2.82-5.79,18.3,18.3,0,0,1,3.82-4.11,7.15,7.15,0,0,1,3.83-1.7c1.83-.12,3.15.34,3.95,1.38a7.51,7.51,0,0,1,1.48,3.66c.89-2.28,1.88-4.51,2.94-6.68s2.11-4.13,3.14-5.88,1.92-3.21,2.7-4.4A24.28,24.28,0,0,1,155,43.9ZM137.49,73.69a3.19,3.19,0,0,0,1.79-.82,7.23,7.23,0,0,0,1.65-2,12.11,12.11,0,0,0,1.15-2.56,6.92,6.92,0,0,0,.36-2.65A8.16,8.16,0,0,0,142,63.4a1.31,1.31,0,0,0-1.38-1,3.44,3.44,0,0,0-2.07,1,11.75,11.75,0,0,0-3.15,5A7.09,7.09,0,0,0,135,71a3,3,0,0,0,.8,2A2,2,0,0,0,137.49,73.69Z"/></g></svg>